<?xml version="1.0" encoding="utf-8"?>
<!-- Generator: Adobe Illustrator 22.1.0, SVG Export Plug-In . SVG Version: 6.00 Build 0)  -->
<svg version="1.1" id="图层_1" xmlns="http://www.w3.org/2000/svg" xmlns:xlink="http://www.w3.org/1999/xlink" x="0px" y="0px"
	 viewBox="0 0 256 256" style="enable-background:new 0 0 256 256;" xml:space="preserve">
<style type="text/css">
	.st0{fill:#141414;}
	.st1{opacity:0.5;fill:#141414;}
</style>
<path class="st0" d="M157,256l0-122.9c0-5.1-3.8-9.5-8.9-9.9c-5.5-0.3-10.1,4.1-10.1,9.5V256h-19l0-122.9c0-5.1-3.8-9.5-8.9-9.9
	c-5.5-0.3-10.1,4.1-10.1,9.5V256H81l0-127.8c0-4.6,1.7-9.1,4.8-12.6c12.9-14.3,31.3-14,42.6-3.9l0.1,0.1l0.1-0.1
	c11.3-10.1,29.7-10.3,42.6,3.9c3.1,3.4,4.8,7.9,4.8,12.6l0,127.8H157z"/>
<path class="st1" d="M156.5,47c-0.1-15.7-12.8-28.4-28.5-28.4c-15.7,0-28.5,12.7-28.5,28.4H80.7c0-13.9,6-26.9,16.8-36
	C105,4.6,114.3,0.8,124,0c14.1-1.1,27.5,3.8,37.4,13.7c8.9,8.9,13.8,20.7,13.8,33.3H156.5z"/>
<path class="st0" d="M97.5,87c-10.8-9.1-16.8-22.1-16.8-36h18.8c0.1,15.7,12.8,28.4,28.5,28.4c15.7,0,28.5-12.7,28.5-28.4h18.8
	c0,12.6-4.9,24.4-13.8,33.3c-9.9,9.9-23.3,14.8-37.4,13.7C114.3,97.2,105,93.4,97.5,87z"/>
</svg>
